<?xml version="1.0" standalone="no"?><!DOCTYPE svg PUBLIC "-//W3C//DTD SVG 1.1//EN" "http://www.w3.org/Graphics/SVG/1.1/DTD/svg11.dtd"><svg t="1555058147175" class="icon" style="" viewBox="0 0 1024 1024" version="1.1" xmlns="http://www.w3.org/2000/svg" p-id="1971" xmlns:xlink="http://www.w3.org/1999/xlink" width="200" height="200"><defs><style type="text/css"></style></defs><path d="M693.248 359.424L540.672 512l151.552 151.552c8.192 8.192 8.192 20.48 0 28.672-4.096 4.096-9.216 6.144-14.336 6.144s-10.24-2.048-14.336-6.144L512 540.672 359.424 693.248c-4.096 4.096-9.216 6.144-14.336 6.144s-10.24-2.048-14.336-6.144c-8.192-8.192-8.192-20.48 0-28.672L483.328 512 330.752 359.424c-8.192-8.192-8.192-20.48 0-28.672s20.48-8.192 28.672 0L512 483.328l152.576-152.576c8.192-8.192 20.48-8.192 28.672 0 8.192 8.192 8.192 20.48 0 28.672zM972.8 512c0 253.952-206.848 460.8-460.8 460.8S51.2 765.952 51.2 512 258.048 51.2 512 51.2s460.8 206.848 460.8 460.8z m-40.96 0C931.84 280.576 743.424 92.16 512 92.16S92.16 280.576 92.16 512s188.416 419.84 419.84 419.84 419.84-188.416 419.84-419.84z" p-id="1972" fill="#dbdbdb"></path></svg>