<?xml version="1.0" standalone="no"?><!DOCTYPE svg PUBLIC "-//W3C//DTD SVG 1.1//EN" "http://www.w3.org/Graphics/SVG/1.1/DTD/svg11.dtd"><svg t="1553495777558" class="icon" style="" viewBox="0 0 1024 1024" version="1.1" xmlns="http://www.w3.org/2000/svg" p-id="2987" xmlns:xlink="http://www.w3.org/1999/xlink" width="200" height="200"><defs><style type="text/css"></style></defs><path d="M842.202899 1024H181.797101A89.043478 89.043478 0 0 1 92.753623 934.956522V163.246377A89.043478 89.043478 0 0 1 181.797101 74.202899h96.463769a37.101449 37.101449 0 0 1 37.101449 37.101449 37.101449 37.101449 0 0 1-37.101449 37.101449H181.797101a14.84058 14.84058 0 0 0-14.840579 14.84058v771.710145l14.840579 14.840579h660.405798l14.840579-14.840579V163.246377a14.84058 14.84058 0 0 0-14.840579-14.84058H723.478261a37.101449 37.101449 0 0 1-37.101449-37.101449 37.101449 37.101449 0 0 1 37.101449-37.101449h118.724638a89.043478 89.043478 0 0 1 89.043478 89.043478v771.710145a89.043478 89.043478 0 0 1-89.043478 89.043478z" p-id="2988"></path><path d="M723.478261 445.217391H300.521739a37.101449 37.101449 0 0 1-37.101449-37.101449 37.101449 37.101449 0 0 1 37.101449-37.101449h422.956522a44.521739 44.521739 0 0 1 37.101449 37.101449 37.101449 37.101449 0 0 1-37.101449 37.101449zM723.478261 623.304348H300.521739a37.101449 37.101449 0 1 1 0-74.202899h422.956522a37.101449 37.101449 0 0 1 0 74.202899zM500.869565 793.971014H300.521739a37.101449 37.101449 0 0 1-37.101449-37.101449 37.101449 37.101449 0 0 1 37.101449-37.101449h200.347826a37.101449 37.101449 0 0 1 37.101449 37.101449 37.101449 37.101449 0 0 1-37.101449 37.101449zM649.275362 222.608696H374.724638a96.463768 96.463768 0 0 1-96.463768-103.884058v-22.26087A96.463768 96.463768 0 0 1 374.724638 0h274.550724a96.463768 96.463768 0 0 1 96.463768 96.463768v22.26087A96.463768 96.463768 0 0 1 649.275362 222.608696zM374.724638 74.202899a22.26087 22.26087 0 0 0-22.26087 22.260869v22.26087c0 14.84058 7.42029 29.681159 22.26087 29.681159h274.550724a29.681159 29.681159 0 0 0 22.26087-29.681159v-22.26087a37.101449 37.101449 0 0 0-22.26087-22.260869z" p-id="2989"></path></svg>