<?xml version="1.0" standalone="no"?><!DOCTYPE svg PUBLIC "-//W3C//DTD SVG 1.1//EN" "http://www.w3.org/Graphics/SVG/1.1/DTD/svg11.dtd"><svg t="1553496083157" class="icon" style="" viewBox="0 0 1024 1024" version="1.1" xmlns="http://www.w3.org/2000/svg" p-id="7786" xmlns:xlink="http://www.w3.org/1999/xlink" width="200" height="200"><defs><style type="text/css"></style></defs><path d="M512.099 830.58c-8.065 0-16.132-3.03-22.351-9.1l-69.882-68.204-276.454-2.197c-24.172-0.105-43.805-19.803-43.805-43.999V193.784c0-24.262 19.738-44 44-44h740.337c24.262 0 44 19.738 44 44V707.08c0 24.199-19.639 43.898-43.815 44l-280.855 2.197-68.649 68.032c-6.234 6.178-14.38 9.271-22.526 9.271zM163.608 687.238l269.646 2.143a31.993 31.993 0 0 1 22.096 9.099l56.578 55.219 55.546-55.048a32.005 32.005 0 0 1 22.275-9.27l274.195-2.146V213.784H163.608v473.454z m720.337-0.158h-0.04 0.04z m-740.337 0h0.039-0.039z" fill="" p-id="7787"></path><path d="M321 433m-54 0a54 54 0 1 0 108 0 54 54 0 1 0-108 0Z" fill="" p-id="7788"></path><path d="M513 432.6m-54 0a54 54 0 1 0 108 0 54 54 0 1 0-108 0Z" fill="" p-id="7789"></path><path d="M706 433.1m-54 0a54 54 0 1 0 108 0 54 54 0 1 0-108 0Z" fill="" p-id="7790"></path></svg>