<?xml version="1.0" standalone="no"?><!DOCTYPE svg PUBLIC "-//W3C//DTD SVG 1.1//EN" "http://www.w3.org/Graphics/SVG/1.1/DTD/svg11.dtd"><svg t="1553495807177" class="icon" style="" viewBox="0 0 1024 1024" version="1.1" xmlns="http://www.w3.org/2000/svg" p-id="3139" xmlns:xlink="http://www.w3.org/1999/xlink" width="200" height="200"><defs><style type="text/css"></style></defs><path d="M711.963753 536.195052c15.326057 0 27.7756-12.477172 27.7756-27.7756 0-15.35164-12.449543-27.7756-27.7756-27.7756L556.815183 480.643851l142.238538-142.238538c10.822486-10.850116 10.822486-28.4254 0-39.275515-10.850116-10.850116-28.454052-10.850116-39.275515 0L517.539668 441.36936 375.30113 299.130821c-10.822486-10.904351-28.426423-10.904351-39.275515 0-10.822486 10.850116-10.822486 28.372188 0 39.275515l142.238538 142.238538L323.11456 480.644875c-15.325034 0-27.774577 12.422937-27.774577 27.7756 0 15.297404 12.449543 27.7756 27.774577 27.7756l166.649508 0 0 55.550177L323.11456 591.746252c-15.325034 0-27.774577 12.421914-27.774577 27.774577 0 15.298428 12.449543 27.7756 27.774577 27.7756l166.649508 0-0.352017 116.41643c0 15.297404 12.449543 27.7756 27.774577 27.7756 15.325034 0 27.7756-12.477172 27.7756-27.7756l0.353041-116.41643 166.649508 0c15.326057 0 27.7756-12.476149 27.7756-27.7756 0-15.352663-12.449543-27.774577-27.7756-27.774577L545.315268 591.746252 545.315268 536.195052 711.963753 536.195052z" p-id="3140"></path><path d="M901.805472 466.13337c1.789763 14.539134 13.887288 24.791639 29.294187 24.275893 14.618952-0.921999 26.038026-13.047154 26.038026-27.720342L957.137685 173.600827c0-15.35164-12.422937-27.774577-27.774577-27.774577-15.352663 0-27.7756 12.422937-27.7756 27.774577l0 119.562073C823.905264 157.353794 677.517219 67.220984 512.792551 67.220984c-225.318722 0-416.244122 168.548764-444.26327 393.243269-0.1361 1.925862-3.770883 48.063669 0.135076 104.291275C96.575034 788.230252 287.501458 956.780039 512.792551 956.780039c225.319745 0 416.245146-168.549787 444.128193-392.024511 1.898233-15.21554-8.896624-29.102828-24.112164-31.002085-15.298428-1.682315-29.103852 8.92323-31.003108 24.112164C877.393479 753.618966 710.147384 901.228839 512.792551 901.228839c-197.327204 0-364.573299-147.609873-388.849192-341.815993-3.444449-49.935296-0.135076-93.307106-0.162706-93.307106 0 0 0 0 0 0.026606 24.410969-195.753359 191.657065-343.362208 389.011898-343.362208C710.119755 122.771161 877.366873 270.378987 901.805472 466.13337z" p-id="3141"></path></svg>